<svg width="128" height="128" viewBox="0 0 128 128" fill="none" xmlns="http://www.w3.org/2000/svg">
<circle cx="63.7579" cy="63.7579" r="63.7579" fill="white"/>
<path d="M60.277 90.7065C74.7325 90.7065 86.451 78.988 86.451 64.5325C86.451 50.077 74.7325 38.3585 60.277 38.3585C45.8215 38.3585 34.103 50.077 34.103 64.5325C34.103 78.988 45.8215 90.7065 60.277 90.7065Z" fill="black"/>
<path d="M60.5735 64.6553L84.3338 64.135C84.6229 77.2581 74.2169 88.1266 61.0938 88.4157C53.217 88.5891 46.4242 85.3083 41.6548 79.043L60.5735 64.6553Z" fill="#F28579"/>
<path d="M63.4351 62.4224L70.2857 39.6593C80.3448 42.6872 86.9714 51.4022 87.2027 61.8949L63.4423 62.4152L63.4351 62.4224Z" fill="#AD3A31"/>
<path d="M60.7321 64.6337L41.8495 78.9925C33.915 68.5648 35.9456 53.6785 46.3733 45.7511C52.6313 40.989 60.0383 39.6521 67.5682 41.9139L60.7321 64.6337Z" fill="#F56651"/>
<path d="M45.7302 54.7263H33.8573L28.582 47.7673" stroke="black" stroke-miterlimit="10"/>
<path d="M45.6872 53.9097C46.1352 53.9097 46.5038 54.2782 46.5038 54.7263C46.5038 55.1743 46.1352 55.5428 45.6872 55.5428C45.2392 55.5428 44.8706 55.1743 44.8706 54.7263C44.8706 54.2782 45.2392 53.9097 45.6872 53.9097Z" fill="black"/>
<path d="M29.8903 39.5149H17.2803" stroke="black" stroke-width="2" stroke-miterlimit="10"/>
<path d="M29.8901 42.7885H22.2012" stroke="black" stroke-width="2" stroke-miterlimit="10"/>
<path d="M29.8903 46.0547H17.2803" stroke="black" stroke-width="2" stroke-miterlimit="10"/>
<path d="M65.2417 83.3789L75.4598 93.6042" stroke="black" stroke-miterlimit="10"/>
<path d="M65.2707 84.2245C65.7217 84.2245 66.0873 83.8589 66.0873 83.4079C66.0873 82.9569 65.7217 82.5913 65.2707 82.5913C64.8197 82.5913 64.4541 82.9569 64.4541 83.4079C64.4541 83.8589 64.8197 84.2245 65.2707 84.2245Z" fill="black"/>
<path d="M76.6519 91.6531H91.6827" stroke="black" stroke-width="2" stroke-miterlimit="10"/>
<path d="M76.6519 94.7388H86.8483" stroke="black" stroke-width="2" stroke-miterlimit="10"/>
<path d="M76.6519 97.8173H83.6686" stroke="black" stroke-width="2" stroke-miterlimit="10"/>
<path d="M74.4912 52.8402L82.3824 44.949H94.6528" stroke="black" stroke-miterlimit="10"/>
<path d="M74.5202 53.6279C74.9712 53.6279 75.3368 53.2623 75.3368 52.8113C75.3368 52.3603 74.9712 51.9948 74.5202 51.9948C74.0692 51.9948 73.7036 52.3603 73.7036 52.8113C73.7036 53.2623 74.0692 53.6279 74.5202 53.6279Z" fill="black"/>
<path d="M95.6719 43.2798H108" stroke="black" stroke-width="2" stroke-miterlimit="10"/>
<path d="M95.6719 46.4954H108" stroke="black" stroke-width="2" stroke-miterlimit="10"/>
<path d="M95.6719 49.704H108" stroke="black" stroke-width="2" stroke-miterlimit="10"/>
</svg>
