<svg width="23" height="29" viewBox="0 0 23 29" fill="none" xmlns="http://www.w3.org/2000/svg">
<path d="M19.0521 15.3875C19.0225 11.8521 21.9513 10.1289 22.0876 10.0519C20.4276 7.63578 17.8545 7.30415 16.9474 7.28047C14.7834 7.05547 12.6905 8.57146 11.5878 8.57146C10.4672 8.57146 8.77157 7.30416 6.93961 7.33972C4.58586 7.37522 2.38628 8.73727 1.18275 10.8455C-1.30735 15.1506 0.548384 21.4751 2.93768 24.9571C4.12932 26.6626 5.52264 28.5636 7.34871 28.4984C9.13324 28.4273 9.80321 27.3614 11.9554 27.3614C14.0897 27.3614 14.7181 28.4984 16.5798 28.4569C18.4948 28.4273 19.7043 26.7455 20.8545 25.0282C22.2359 23.074 22.7873 21.1494 22.811 21.0547C22.7636 21.025 19.0877 19.6216 19.0521 15.3875ZM15.5364 4.98873C16.4968 3.78661 17.1549 2.15812 16.9711 0.5C15.5838 0.559187 13.8407 1.45931 12.8446 2.63186C11.9613 3.66817 11.1668 5.36179 11.3744 6.95478C12.9277 7.06728 14.5344 6.16716 15.5364 4.98873Z" fill="black"/>
</svg>
