<svg width="128" height="128" viewBox="0 0 128 128" fill="none" xmlns="http://www.w3.org/2000/svg">
<circle cx="63.7579" cy="63.7579" r="63.7579" fill="white"/>
<path d="M36.7575 48.1822C41.4115 48.1822 45.1923 43.2481 45.1923 38.5942C45.1923 33.9402 41.4115 30.1594 36.7575 30.1594C32.1036 30.1594 28.3228 33.9485 28.3228 38.5942C28.3228 43.2481 32.1118 48.1822 36.7575 48.1822Z" fill="#D85648"/>
<path d="M43.0919 48.2727C41.4527 49.5165 39.4099 50.2578 37.2023 50.2578H36.3127C34.097 50.2578 32.0624 49.5165 30.4232 48.2727C25.0774 49.1376 21 53.7668 21 59.3516C21 62.424 28.0592 64.9116 36.7575 64.9116C45.4559 64.9116 52.5151 62.424 52.5151 59.3516C52.5151 53.7668 48.4377 49.1294 43.0919 48.2727Z" fill="#D85648"/>
<path d="M91.9707 81.2952C96.6246 81.2952 100.405 76.3612 100.405 71.7072C100.405 67.0533 96.6246 63.2725 91.9707 63.2725C87.3167 63.2725 83.5359 67.0615 83.5359 71.7072C83.5359 76.3612 87.325 81.2952 91.9707 81.2952Z" fill="#D85648"/>
<path d="M98.2967 81.3776C96.6575 82.6214 94.6147 83.3627 92.4072 83.3627H91.5176C89.3018 83.3627 87.2672 82.6214 85.6281 81.3776C80.2822 82.2425 76.2048 86.8717 76.2048 92.4564C76.2048 95.5289 83.264 98.0165 91.9624 98.0165C100.661 98.0165 107.72 95.5289 107.72 92.4564C107.72 86.8717 103.643 82.2342 98.2967 81.3776Z" fill="#D85648"/>
<path d="M52.0869 38.7919H86.7403C89.8045 38.7919 92.2921 41.2795 92.2921 44.3437V57.1359" stroke="black" stroke-width="3" stroke-miterlimit="10"/>
<path d="M95.2905 56.7323H89.2856L92.2839 59.7306L95.2905 56.7323Z" fill="black"/>
<path d="M70.0436 91.0315H35.3985C32.3343 91.0315 29.8467 88.5439 29.8467 85.4797V72.6875" stroke="black" stroke-width="3" stroke-miterlimit="10"/>
<path d="M26.8484 73.0911H32.8532L29.8467 70.0928L26.8484 73.0911Z" fill="black"/>
</svg>
