<svg width="14" height="14" viewBox="0 0 14 14" fill="none" xmlns="http://www.w3.org/2000/svg">
<g clip-path="url(#clip0_2175_9972)">
<path d="M13.6404 2.87468H4.59315C4.39955 2.87468 4.2334 2.65068 4.2334 2.38924C4.2334 2.12781 4.3994 1.90381 4.59315 1.90381H13.6404C13.834 1.90381 14.0002 2.12781 14.0002 2.38924C14.0002 2.65068 13.8342 2.87468 13.6404 2.87468Z" fill="black"/>
<path d="M1.77073 2.87468H0.359754C0.166154 2.87468 0 2.65068 0 2.38924C0 2.12781 0.166006 1.90381 0.359754 1.90381H1.77073C1.96433 1.90381 2.13049 2.12781 2.13049 2.38924C2.13049 2.65068 1.99207 2.87468 1.77073 2.87468Z" fill="black"/>
<path d="M13.6401 7.46648H11.2606C11.067 7.46648 10.9009 7.24248 10.9009 6.98104C10.9009 6.71961 11.0669 6.49561 11.2606 6.49561H13.6401C13.8337 6.49561 13.9998 6.71961 13.9998 6.98104C13.9998 7.24248 13.8338 7.46648 13.6401 7.46648Z" fill="black"/>
<path d="M8.43872 7.46648H0.359754C0.166154 7.46648 0 7.24248 0 6.98104C0 6.71961 0.166006 6.49561 0.359754 6.49561H8.43872C8.63232 6.49561 8.79847 6.71961 8.79847 6.98104C8.79847 7.24248 8.63247 7.46648 8.43872 7.46648Z" fill="black"/>
<path d="M13.6404 12.0959H4.59315C4.39955 12.0959 4.2334 11.8719 4.2334 11.6104C4.2334 11.349 4.3994 11.125 4.59315 11.125H13.6404C13.834 11.125 14.0002 11.349 14.0002 11.6104C14.0002 11.8719 13.8342 12.0959 13.6404 12.0959Z" fill="black"/>
<path d="M1.77073 12.096H0.359754C0.166154 12.096 0 11.872 0 11.6106C0 11.3119 0.166006 11.0879 0.359754 11.0879H1.77073C1.96433 11.0879 2.13049 11.3119 2.13049 11.5733C2.15823 11.872 1.99207 12.096 1.77073 12.096Z" fill="black"/>
<path d="M3.18187 4.7787C2.21357 4.7787 1.41113 3.69593 1.41113 2.38935C1.41113 1.08277 2.21357 0 3.18187 0C4.15016 0 4.9526 1.08277 4.9526 2.38935C4.9526 3.69593 4.1779 4.7787 3.18187 4.7787ZM3.18187 0.970674C2.60077 0.970674 2.13049 1.60544 2.13049 2.38935C2.13049 3.17326 2.60092 3.80803 3.18187 3.80803C3.76281 3.80803 4.23324 3.17326 4.23324 2.38935C4.23324 1.60544 3.76281 0.970674 3.18187 0.970674Z" fill="black"/>
<path d="M9.84983 9.3705C8.88154 9.3705 8.0791 8.28772 8.0791 6.98115C8.0791 5.67457 8.88154 4.5918 9.84983 4.5918C10.8181 4.5918 11.6206 5.67457 11.6206 6.98115C11.6206 8.28772 10.8459 9.3705 9.84983 9.3705ZM9.84983 5.56247C9.26874 5.56247 8.79846 6.19724 8.79846 6.98115C8.79846 7.76505 9.26889 8.39982 9.84983 8.39982C10.4308 8.39982 10.9012 7.76505 10.9012 6.98115C10.9012 6.19724 10.4308 5.56247 9.84983 5.56247Z" fill="black"/>
<path d="M3.18187 13.9999C2.21357 13.9999 1.41113 12.9171 1.41113 11.6105C1.41113 10.304 2.21357 9.22119 3.18187 9.22119C4.15016 9.22119 4.9526 10.304 4.9526 11.6105C4.98034 12.9171 4.1779 13.9999 3.18187 13.9999ZM3.18187 10.1919C2.60077 10.1919 2.13049 10.8266 2.13049 11.6105C2.13049 12.3944 2.60092 13.0292 3.18187 13.0292C3.76281 13.0292 4.23324 12.3944 4.23324 11.6105C4.23324 10.8266 3.76281 10.1919 3.18187 10.1919Z" fill="black"/>
</g>
<defs>
<clipPath id="clip0_2175_9972">
<rect width="14" height="14" fill="white"/>
</clipPath>
</defs>
</svg>
