<svg width="128" height="128" viewBox="0 0 128 128" fill="none" xmlns="http://www.w3.org/2000/svg">
<circle cx="63.7579" cy="63.7579" r="63.7579" fill="white"/>
<path d="M52.439 82.4815L92.6694 59.8134L59.2902 48.0532L87.3179 31.9004" stroke="black" stroke-width="3" stroke-miterlimit="10"/>
<path d="M50.2179 99.4128C60.8316 99.4128 69.4357 90.8086 69.4357 80.1949C69.4357 69.5812 60.8316 60.9771 50.2179 60.9771C39.6041 60.9771 31 69.5812 31 80.1949C31 90.8086 39.6041 99.4128 50.2179 99.4128Z" fill="white" stroke="#F56651" stroke-width="3" stroke-miterlimit="10"/>
<path d="M50.218 80.6048C53.1519 80.6048 55.545 77.4906 55.545 74.5485C55.545 71.6064 53.1519 69.2216 50.218 69.2216C47.2841 69.2216 44.8911 71.6146 44.8911 74.5485C44.8911 77.4824 47.2841 80.6048 50.218 80.6048Z" fill="#D85648"/>
<path d="M54.2173 80.6539C53.1847 81.4407 51.8981 81.9078 50.4967 81.9078H49.9394C48.5462 81.9078 47.2514 81.4407 46.2188 80.6539C42.8423 81.203 40.269 84.1205 40.269 87.6527C40.269 89.5868 44.7273 91.1602 50.2181 91.1602C55.7089 91.1602 60.1671 89.5868 60.1671 87.6527C60.1671 84.1287 57.5938 81.203 54.2173 80.6539Z" fill="#D85648"/>
<path d="M92.6612 64.6568C94.8493 64.5585 96.5294 62.1491 96.431 59.9609C96.3327 57.7728 94.4723 56.0682 92.276 56.1665C90.0797 56.2649 88.3833 58.1252 88.4816 60.3215C88.58 62.5096 90.4649 64.7633 92.6612 64.665V64.6568Z" fill="#D85648"/>
<path d="M57.9708 51.3232C60.1589 51.2248 61.8389 48.8154 61.7406 46.6273C61.6422 44.4392 59.7819 42.7346 57.5856 42.8329C55.3893 42.9313 53.6928 44.7916 53.7912 46.9879C53.8895 49.176 55.7744 51.4297 57.9708 51.3314V51.3232Z" fill="#D85648"/>
<path d="M87.6783 35.2523C89.8664 35.1539 91.5464 32.7445 91.4481 30.5564C91.3498 28.3683 89.4894 26.6636 87.2931 26.762C85.0968 26.8603 83.4004 28.7206 83.4987 30.917C83.597 33.1051 85.482 35.3588 87.6783 35.2605V35.2523Z" fill="#D85648"/>
</svg>
