<svg width="245" height="55" viewBox="0 0 245 55" fill="none" xmlns="http://www.w3.org/2000/svg">
<path d="M45.7678 6.52858C45.4669 5.50495 45.1703 4.47714 44.8695 3.44933C44.5603 2.39227 44.2553 1.33104 43.9461 0.273987H5.33646C5.03146 1.33104 4.72228 2.39227 4.41311 3.44933C4.11646 4.47714 3.81982 5.50077 3.519 6.52858H0.652832V10.7652H48.6339V6.52858C48.6339 6.52858 45.7678 6.52858 45.7719 6.52858H45.7678ZM42.0242 31.0581L45.3082 12.3946H4.37133L10.7513 52.663L10.8097 52.6546L10.7554 52.7047C12.435 54.4971 22.6546 54.5891 24.6893 54.5891C25.8801 54.5891 36.3796 54.5389 38.4436 52.8677L38.4102 52.8259H38.4311L42.0284 31.0581H42.0242ZM41.5312 21.3942L38.0007 42.7609H11.2693L7.88509 21.3942H41.5354H41.5312ZM78.1813 16.6228H84.6072V37.6804H78.1813V35.5746C77.8972 36.3016 75.9837 38.0856 72.7331 38.0856C67.8949 38.0856 62.3255 34.6429 62.3255 27.1098C62.3255 19.5767 67.8949 16.2552 72.7331 16.2552C75.9878 16.2552 77.8972 18.1186 78.1813 18.5656V16.6228ZM73.669 32.4578C76.3137 32.4578 78.4654 30.6361 78.4654 27.1098C78.4654 23.5835 76.3095 21.8872 73.669 21.8872C71.0285 21.8872 68.5467 23.7506 68.5467 27.1098C68.5467 30.469 70.9031 32.4536 73.669 32.4536V32.4578ZM100.626 16.2593C105.464 16.2593 111.034 19.865 111.034 27.114C111.034 34.363 105.464 38.0898 100.626 38.0898C97.3713 38.0898 95.4619 36.3099 95.1778 35.5788V45.3806H88.7519V16.6228H95.1778V18.5656C95.4619 18.1186 97.3754 16.2552 100.626 16.2552V16.2593ZM99.6901 32.4578C102.456 32.4578 104.812 30.5943 104.812 27.114C104.812 23.6336 102.456 21.8914 99.6901 21.8914C96.9242 21.8914 94.8937 23.713 94.8937 27.114C94.8937 30.5149 97.0495 32.4578 99.6901 32.4578ZM126.405 16.2593C131.243 16.2593 136.812 19.865 136.812 27.114C136.812 34.363 131.243 38.0898 126.405 38.0898C123.15 38.0898 121.241 36.3099 120.957 35.5788V45.3806H114.531V16.6228H120.957V18.5656C121.241 18.1186 123.154 16.2551 126.405 16.2593ZM125.469 32.4578C128.235 32.4578 130.591 30.5943 130.591 27.114C130.591 23.6336 128.235 21.8914 125.469 21.8914C122.703 21.8914 120.672 23.713 120.672 27.114C120.672 30.5149 122.828 32.4578 125.469 32.4578ZM152.184 16.2593C157.022 16.2593 162.591 19.865 162.591 27.114C162.591 34.363 157.022 38.0898 152.184 38.0898C148.929 38.0898 147.019 36.3099 146.735 35.5788V37.6845H140.309V9.04796H146.735V18.5656C147.019 18.1186 148.933 16.2552 152.184 16.2552V16.2593ZM151.248 32.4578C154.014 32.4578 156.37 30.5943 156.37 27.114C156.37 23.6336 154.014 21.8914 151.248 21.8914C148.482 21.8914 146.451 23.713 146.451 27.114C146.451 30.5149 148.607 32.4578 151.248 32.4578ZM179.671 16.3011C180.239 16.3011 180.812 16.3011 181.338 16.4223V22.539C180.849 22.4178 180.281 22.4178 179.876 22.4178C175.974 22.4178 172.84 25.213 172.518 29.0986V37.6845H166.092V16.627H172.518V21.7702C173.496 18.6116 175.932 16.3011 179.675 16.3011H179.671ZM195.122 16.2593C199.918 16.2593 206.628 19.865 205.287 29.3785H190.526C191.257 31.5678 193.171 32.7001 195.732 32.7001C198.293 32.7001 199.145 32.1319 200.612 31.526L204.151 34.927C202.279 36.7486 199.759 38.0856 195.489 38.0856C190.246 38.0856 183.983 34.4799 183.983 27.231C183.983 19.982 190.325 16.2552 195.126 16.2552L195.122 16.2593ZM195.122 21.7243C193.292 21.7243 191.42 22.7771 190.609 24.8829H199.596C198.945 22.7771 196.952 21.7243 195.126 21.7243H195.122ZM238.265 16.5393H244.649L237.086 37.6804H230.907L226.273 24.5194L221.64 37.6804H215.461L207.898 16.5393H214.282L218.632 30.0637L223.47 16.5393H229.081L233.919 30.0637L238.269 16.5393H238.265Z" fill="white"/>
</svg>
