<svg width="36" height="36" viewBox="0 0 36 36" fill="none" xmlns="http://www.w3.org/2000/svg">
<g clip-path="url(#clip0_966_16722)">
<path fill-rule="evenodd" clip-rule="evenodd" d="M18 34.5C27.1127 34.5 34.5 27.1127 34.5 18C34.5 8.8873 27.1127 1.5 18 1.5C8.8873 1.5 1.5 8.8873 1.5 18C1.5 27.1127 8.8873 34.5 18 34.5ZM18 36C27.9411 36 36 27.9411 36 18C36 8.05887 27.9411 0 18 0C8.05887 0 0 8.05887 0 18C0 27.9411 8.05887 36 18 36Z" fill="black"/>
<path d="M15.542 20.4366C15.542 19.0661 15.542 17.7936 15.542 16.4231C15.6399 14.6611 16.6188 13.7801 18.185 14.4653C18.9681 14.759 19.4575 14.8569 20.0449 14.5632C21.5132 13.7801 22.7858 14.3674 24.1562 14.8569C25.0372 15.1506 25.5267 15.8358 25.8203 16.7168C26.6034 19.2619 26.6034 21.807 26.5056 24.3521C26.5056 25.0374 26.2119 25.5268 25.4288 25.6247C25.233 25.6247 25.1351 25.6247 24.9393 25.7226C22.1984 26.212 21.9048 26.0162 22.1984 23.2753C22.2963 22.1007 22.4921 20.926 22.1984 19.7513C22.0026 19.164 21.8069 18.4788 21.0238 18.3809C20.3385 18.283 19.8491 18.7725 19.4575 19.2619C19.066 19.7513 18.9681 20.3387 18.9681 21.0239C18.9681 22.0028 18.9681 22.8838 18.9681 23.8627C18.9681 25.8205 18.8702 25.9184 17.1082 25.8205C15.4441 25.8205 15.4441 25.8205 15.4441 24.1563C15.542 22.9817 15.542 21.7091 15.542 20.4366Z" fill="black"/>
<path d="M10.1581 20.2406C10.1581 18.8701 10.1581 17.5976 10.1581 16.2271C10.1581 15.0525 10.8433 14.8567 11.8222 14.7588C12.899 14.7588 13.0947 15.3461 13.0947 16.2271C13.2905 18.7722 13.2905 21.3174 13.1926 23.8625C13.1926 24.7435 13.1926 25.8203 11.8222 25.8203C10.6475 25.9181 10.0602 25.4287 10.0602 24.254C10.0602 22.8836 10.0602 21.4152 10.0602 20.0448C10.0602 20.2406 10.1581 20.2406 10.1581 20.2406Z" fill="black"/>
<path d="M11.0391 9.375C12.5074 9.375 13.2906 9.96233 13.2906 10.8433C13.2906 11.9201 12.018 13.1927 11.0391 13.1927C10.0602 13.1927 9.375 12.4096 9.375 11.3328C9.47289 10.0602 10.0602 9.375 11.0391 9.375Z" fill="black"/>
</g>
<defs>
<clipPath id="clip0_966_16722">
<rect width="36" height="36" fill="white"/>
</clipPath>
</defs>
</svg>
