<svg width="32" height="32" viewBox="0 0 32 32" fill="none" xmlns="http://www.w3.org/2000/svg">
<path d="M10.6666 21.3333L21.3333 10.6667M11.333 11.3333H12.133M11.333 12.1333H12.133M19.8664 19.8666H20.6664M19.8664 20.6666H20.6664M27.2234 12.2884C26.8319 11.766 26.6144 11.2 26.5274 10.5469L26.1794 8.15238C26.0054 6.8898 25.0049 5.88844 23.6998 5.67075L21.3072 5.32245C20.6982 5.23538 20.0891 4.97415 19.5671 4.62585L17.6965 3.23265C17.1745 2.84082 16.5655 2.66667 15.9565 2.66667C15.3474 2.66667 14.7384 2.84082 14.2164 3.23265L12.3023 4.66939C11.7803 5.06123 11.2147 5.27891 10.5622 5.36599L8.21312 5.71429C6.95156 5.88844 5.95102 6.8898 5.73351 8.19592L5.38549 10.5905C5.29849 11.2 5.03748 11.8095 4.68946 12.332L3.2539 14.2476C2.47087 15.2925 2.47087 16.7293 3.2539 17.7306L4.68946 19.6463C5.08098 20.1687 5.29849 20.7347 5.38549 21.3878L5.73351 23.7823C5.90752 25.0449 6.90806 26.0463 8.21312 26.2639L10.6057 26.6122C11.2147 26.6993 11.8238 26.9605 12.3458 27.3088L14.2599 28.7456C15.3039 29.5293 16.7395 29.5293 17.74 28.7456L19.6541 27.3088C20.1761 26.917 20.7417 26.6993 21.3942 26.6122L23.7868 26.2639C25.0484 26.0898 26.0489 25.0884 26.2664 23.7823L26.6144 21.3878C26.7014 20.7782 26.9624 20.1687 27.3105 19.6463L28.746 17.7306C29.5291 16.6857 29.5291 15.249 28.746 14.2476L27.2234 12.2884ZM12.8 11.7333C12.8 12.3224 12.3224 12.8 11.7333 12.8C11.1442 12.8 10.6666 12.3224 10.6666 11.7333C10.6666 11.1442 11.1442 10.6667 11.7333 10.6667C12.3224 10.6667 12.8 11.1442 12.8 11.7333ZM21.3333 20.2667C21.3333 20.8558 20.8557 21.3333 20.2666 21.3333C19.6775 21.3333 19.2 20.8558 19.2 20.2667C19.2 19.6776 19.6775 19.2 20.2666 19.2C20.8557 19.2 21.3333 19.6776 21.3333 20.2667Z" stroke="#F46651" stroke-width="2" stroke-linecap="round"/>
</svg>
