<svg width="36" height="36" viewBox="0 0 36 36" fill="none" xmlns="http://www.w3.org/2000/svg">
<g clip-path="url(#clip0_966_16721)">
<path fill-rule="evenodd" clip-rule="evenodd" d="M18 34.5C27.1127 34.5 34.5 27.1127 34.5 18C34.5 8.8873 27.1127 1.5 18 1.5C8.8873 1.5 1.5 8.8873 1.5 18C1.5 27.1127 8.8873 34.5 18 34.5ZM18 36C27.9411 36 36 27.9411 36 18C36 8.05887 27.9411 0 18 0C8.05887 0 0 8.05887 0 18C0 27.9411 8.05887 36 18 36Z" fill="black"/>
<path d="M13.8734 18.8375C12.214 19.0864 11.7991 18.9205 11.3013 17.7588C10.0567 14.6059 11.6331 10.9551 14.7861 9.62749C17.0264 8.71478 19.3497 8.79775 21.507 9.8764C24.0791 11.121 25.4067 14.191 25.0748 17.427C24.7429 20.9118 21.6729 23.567 18.1051 22.4053C17.1094 22.0735 16.7775 22.4883 16.4456 23.401C15.6159 25.4754 15.3669 25.8072 14.0394 27.0518C13.6245 26.3881 13.7904 25.6413 13.8734 24.9775C14.2053 21.9075 14.9521 18.8375 14.9521 15.7675C14.9521 15.5186 14.9521 15.2697 15.035 14.9378C15.3669 13.8591 16.2796 13.1124 17.1923 13.2783C17.9391 13.4442 18.5199 14.4399 18.188 15.5186C17.9391 16.3483 18.0221 17.178 17.9391 18.0907C17.9391 18.8375 18.271 19.3353 19.0178 19.5843C19.6815 19.8332 20.2624 19.6672 20.8432 19.1694C22.0878 18.0078 22.5856 14.9378 21.7559 13.1953C21.0921 11.8678 18.6859 10.7891 17.1923 11.121C15.118 11.6188 13.5415 13.6102 13.5415 15.7675C13.3756 16.8461 13.6245 17.8418 13.8734 18.8375Z" fill="black"/>
</g>
<defs>
<clipPath id="clip0_966_16721">
<rect width="36" height="36" fill="white"/>
</clipPath>
</defs>
</svg>
