<svg width="27" height="29" viewBox="0 0 27 29" fill="none" xmlns="http://www.w3.org/2000/svg">
<path d="M1.46345 28.4999C1.02849 28.2812 0.811035 27.7343 0.811035 27.1875C0.811035 27.078 0.811035 26.8593 0.811035 26.75C0.811035 18.6562 0.811035 10.5623 0.811035 2.57785C0.811035 2.14034 0.919761 1.81225 1.02849 1.37474C1.13728 1.15595 1.35473 0.93723 1.57224 0.718506C6.24801 5.42164 10.8151 10.1248 15.3821 14.828C10.7063 19.203 6.13929 23.7968 1.46345 28.4999Z" fill="black"/>
<path d="M19.9489 10.0157C18.644 11.3282 17.2304 12.6407 15.9256 14.0626C11.576 9.57818 7.11766 5.09377 2.76807 0.609362C2.76807 0.609362 2.76807 0.5 2.87679 0.5C8.53128 3.67188 14.1857 6.84382 19.9489 10.0157Z" fill="black"/>
<path d="M2.76807 28.4998C7.11766 24.1248 11.576 19.7498 15.9256 15.3748C17.1217 16.5779 18.4266 17.781 19.8402 19.0935C14.1857 22.2654 8.53128 25.4373 2.87679 28.4998H2.76807Z" fill="black"/>
<path d="M20.6018 18.656C19.1882 17.3436 17.8833 16.031 16.4697 14.7186C17.8833 13.2967 19.297 11.8748 20.7105 10.4529C21.1455 10.6716 21.5805 10.8904 22.0154 11.2185C23.1028 11.8748 24.299 12.4217 25.3864 13.0779C25.7126 13.1872 25.9301 13.406 26.1475 13.7341C26.5825 14.281 26.5825 14.8279 26.1475 15.3748C25.9301 15.5935 25.7126 15.8123 25.3864 15.9217C23.864 16.9061 22.2329 17.7811 20.6018 18.656Z" fill="black"/>
</svg>
