<svg width="25" height="24" viewBox="0 0 25 24" fill="none" xmlns="http://www.w3.org/2000/svg">
<g clip-path="url(#clip0_2163_4463)">
<path d="M12.1908 23.9022C18.9235 23.9022 24.3815 18.5657 24.3815 11.9828C24.3815 5.39996 18.9235 0.0634766 12.1908 0.0634766C5.45798 0.0634766 0 5.39996 0 11.9828C0 18.5657 5.45798 23.9022 12.1908 23.9022Z" fill="#E76651"/>
<path d="M12.191 22.4222C18.0879 22.4222 22.8683 17.7482 22.8683 11.9826C22.8683 6.21694 18.0879 1.54297 12.191 1.54297C6.29406 1.54297 1.51367 6.21694 1.51367 11.9826C1.51367 17.7482 6.29406 22.4222 12.191 22.4222Z" fill="#C63D32"/>
<path d="M12.1908 22.0726C17.8902 22.0726 22.5105 17.5551 22.5105 11.9826C22.5105 6.41002 17.8902 1.89258 12.1908 1.89258C6.49139 1.89258 1.87109 6.41002 1.87109 11.9826C1.87109 17.5551 6.49139 22.0726 12.1908 22.0726Z" fill="#E76651"/>
<path d="M12.1908 23.1214C18.4827 23.1214 23.5832 18.1344 23.5832 11.9826C23.5832 5.83078 18.4827 0.84375 12.1908 0.84375C5.89891 0.84375 0.79834 5.83078 0.79834 11.9826C0.79834 18.1344 5.89891 23.1214 12.1908 23.1214Z" fill="white"/>
<path d="M12.191 22.4222C18.0879 22.4222 22.8683 17.7482 22.8683 11.9826C22.8683 6.21694 18.0879 1.54297 12.191 1.54297C6.29406 1.54297 1.51367 6.21694 1.51367 11.9826C1.51367 17.7482 6.29406 22.4222 12.191 22.4222Z" fill="#C63D32"/>
<path d="M12.1908 22.0726C17.8902 22.0726 22.5105 17.5551 22.5105 11.9826C22.5105 6.41002 17.8902 1.89258 12.1908 1.89258C6.49139 1.89258 1.87109 6.41002 1.87109 11.9826C1.87109 17.5551 6.49139 22.0726 12.1908 22.0726Z" fill="#E76651"/>
<path d="M12.158 1.65595L11.9917 1.65771L12.0047 2.79592L12.171 2.79415L12.158 1.65595Z" fill="#C63D32"/>
<path d="M11.2368 1.70426L11.0713 1.72021L11.1855 2.853L11.351 2.83705L11.2368 1.70426Z" fill="#C63D32"/>
<path d="M10.3156 1.81912L10.1521 1.84912L10.3669 2.96786L10.5303 2.93787L10.3156 1.81912Z" fill="#C63D32"/>
<path d="M9.42213 2.01283L9.26196 2.05664L9.57562 3.15282L9.73579 3.10901L9.42213 2.01283Z" fill="#C63D32"/>
<path d="M8.54578 2.29525L8.39014 2.35254L8.80032 3.41782L8.95597 3.36053L8.54578 2.29525Z" fill="#C63D32"/>
<path d="M7.69756 2.63376L7.54761 2.7041L8.05119 3.73038L8.20114 3.66004L7.69756 2.63376Z" fill="#C63D32"/>
<path d="M6.87651 3.06364L6.7334 3.14648L7.32654 4.12594L7.46965 4.04309L6.87651 3.06364Z" fill="#C63D32"/>
<path d="M6.11052 3.54736L5.97534 3.64209L6.65354 4.56728L6.78872 4.47255L6.11052 3.54736Z" fill="#C63D32"/>
<path d="M5.36792 4.09773L5.2417 4.20361L5.99979 5.06749L6.12601 4.9616L5.36792 4.09773Z" fill="#C63D32"/>
<path d="M4.70102 4.70358L4.58472 4.81982L5.41693 5.61581L5.53323 5.49957L4.70102 4.70358Z" fill="#C63D32"/>
<path d="M4.07889 5.3738L3.97339 5.49951L4.87339 6.22155L4.97888 6.09584L4.07889 5.3738Z" fill="#C63D32"/>
<path d="M3.51991 6.09283L3.42603 6.22705L4.38696 6.86965L4.48085 6.73543L3.51991 6.09283Z" fill="#C63D32"/>
<path d="M3.02737 6.84852L2.9458 6.99023L3.96036 7.5485L4.04193 7.40679L3.02737 6.84852Z" fill="#C63D32"/>
<path d="M2.60915 7.64826L2.54053 7.79639L3.60099 8.26607L3.66961 8.11795L2.60915 7.64826Z" fill="#C63D32"/>
<path d="M2.25853 8.48234L2.20337 8.63574L3.30166 9.01327L3.35682 8.85986L2.25853 8.48234Z" fill="#C63D32"/>
<path d="M1.98195 9.34297L1.94067 9.50049L3.06844 9.78299L3.10972 9.62547L1.98195 9.34297Z" fill="#C63D32"/>
<path d="M1.78391 10.2219L1.75684 10.3823L2.90549 10.5676L2.93257 10.4072L1.78391 10.2219Z" fill="#C63D32"/>
<path d="M1.66721 11.1147L1.65454 11.2769L2.81535 11.3636L2.82802 11.2015L1.66721 11.1147Z" fill="#C63D32"/>
<path d="M1.62879 12.0117L1.63062 12.1743L2.79474 12.1618L2.79291 11.9992L1.62879 12.0117Z" fill="#C63D32"/>
<path d="M1.67192 12.908L1.68823 13.0698L2.84681 12.9582L2.83049 12.7963L1.67192 12.908Z" fill="#C63D32"/>
<path d="M1.79354 13.8104L1.82422 13.9702L2.96843 13.7602L2.93775 13.6004L1.79354 13.8104Z" fill="#C63D32"/>
<path d="M1.99767 14.6876L2.04248 14.8442L3.16362 14.5376L3.11881 14.381L1.99767 14.6876Z" fill="#C63D32"/>
<path d="M2.27856 15.5417L2.33716 15.6938L3.4267 15.2928L3.3681 15.1406L2.27856 15.5417Z" fill="#C63D32"/>
<path d="M2.63729 16.3763L2.70923 16.5229L3.75887 16.0306L3.68693 15.884L2.63729 16.3763Z" fill="#C63D32"/>
<path d="M3.06248 17.1804L3.14722 17.3203L4.14897 16.7404L4.06424 16.6004L3.06248 17.1804Z" fill="#C63D32"/>
<path d="M3.56351 17.9357L3.6604 18.0679L4.60665 17.4048L4.50977 17.2726L3.56351 17.9357Z" fill="#C63D32"/>
<path d="M4.11851 18.6466L4.22681 18.77L5.11035 18.0288L5.00205 17.9054L4.11851 18.6466Z" fill="#C63D32"/>
<path d="M4.74708 19.3028L4.86597 19.4165L5.68007 18.6028L5.56119 18.4891L4.74708 19.3028Z" fill="#C63D32"/>
<path d="M5.42538 19.9086L5.55396 20.0117L6.29243 19.1318L6.16386 19.0286L5.42538 19.9086Z" fill="#C63D32"/>
<path d="M6.16448 20.4634L6.30176 20.5552L6.95898 19.6156L6.82171 19.5238L6.16448 20.4634Z" fill="#C63D32"/>
<path d="M6.941 20.9412L7.08594 21.021L7.65691 20.029L7.51198 19.9493L6.941 20.9412Z" fill="#C63D32"/>
<path d="M7.75402 21.3489L7.90552 21.416L8.3859 20.3792L8.2344 20.3121L7.75402 21.3489Z" fill="#C63D32"/>
<path d="M8.61068 21.6946L8.76758 21.7485L9.1537 20.6747L8.9968 20.6208L8.61068 21.6946Z" fill="#C63D32"/>
<path d="M9.48586 21.964L9.64697 22.0044L9.9359 20.9017L9.7748 20.8614L9.48586 21.964Z" fill="#C63D32"/>
<path d="M10.3955 22.1542L10.5596 22.1807L10.7491 21.0576L10.585 21.0311L10.3955 22.1542Z" fill="#C63D32"/>
<path d="M11.3056 22.2767L11.4714 22.2891L11.5601 21.1541L11.3943 21.1417L11.3056 22.2767Z" fill="#C63D32"/>
<path d="M12.2204 22.3045L12.3867 22.3027L12.3739 21.1645L12.2076 21.1663L12.2204 22.3045Z" fill="#C63D32"/>
<path d="M13.1521 22.266L13.3176 22.25L13.2034 21.1172L13.0379 21.1332L13.1521 22.266Z" fill="#C63D32"/>
<path d="M14.0546 22.1477L14.218 22.1177L14.0033 20.9989L13.8398 21.0289L14.0546 22.1477Z" fill="#C63D32"/>
<path d="M14.9595 21.9432L15.1196 21.8994L14.806 20.8032L14.6458 20.847L14.9595 21.9432Z" fill="#C63D32"/>
<path d="M15.8346 21.6681L15.9902 21.6108L15.5801 20.5456L15.4244 20.6028L15.8346 21.6681Z" fill="#C63D32"/>
<path d="M16.6848 21.3228L16.8347 21.2524L16.3311 20.2262L16.1812 20.2965L16.6848 21.3228Z" fill="#C63D32"/>
<path d="M17.5014 20.9036L17.6445 20.8208L17.0514 19.8413L16.9083 19.9242L17.5014 20.9036Z" fill="#C63D32"/>
<path d="M18.2774 20.4214L18.4126 20.3267L17.7344 19.4015L17.5992 19.4962L18.2774 20.4214Z" fill="#C63D32"/>
<path d="M19 19.8681L19.1262 19.7622L18.3681 18.8983L18.2419 19.0042L19 19.8681Z" fill="#C63D32"/>
<path d="M19.6823 19.2583L19.7986 19.1421L18.9664 18.3461L18.8501 18.4623L19.6823 19.2583Z" fill="#C63D32"/>
<path d="M20.3003 18.5881L20.4058 18.4624L19.5058 17.7404L19.4003 17.8661L20.3003 18.5881Z" fill="#C63D32"/>
<path d="M20.8622 17.8788L20.9561 17.7446L19.9951 17.102L19.9012 17.2363L20.8622 17.8788Z" fill="#C63D32"/>
<path d="M21.3523 17.1085L21.4338 16.9668L20.4193 16.4085L20.3377 16.5502L21.3523 17.1085Z" fill="#C63D32"/>
<path d="M21.7741 16.3146L21.8428 16.1665L20.7823 15.6968L20.7137 15.8449L21.7741 16.3146Z" fill="#C63D32"/>
<path d="M22.1245 15.482L22.1797 15.3286L21.0814 14.9511L21.0262 15.1045L22.1245 15.482Z" fill="#C63D32"/>
<path d="M22.3967 14.6175L22.438 14.46L21.3102 14.1775L21.2689 14.335L22.3967 14.6175Z" fill="#C63D32"/>
<path d="M22.595 13.7425L22.6221 13.582L21.4734 13.3967L21.4463 13.5572L22.595 13.7425Z" fill="#C63D32"/>
<path d="M22.7161 12.8438L22.7288 12.6816L21.568 12.5949L21.5553 12.757L22.7161 12.8438Z" fill="#C63D32"/>
<path d="M22.7477 11.9502L22.7458 11.7876L21.5817 11.8001L21.5836 11.9627L22.7477 11.9502Z" fill="#C63D32"/>
<path d="M22.7109 11.052L22.6946 10.8901L21.536 11.0018L21.5523 11.1636L22.7109 11.052Z" fill="#C63D32"/>
<path d="M22.5846 10.1544L22.554 9.99463L21.4097 10.2046L21.4404 10.3644L22.5846 10.1544Z" fill="#C63D32"/>
<path d="M22.382 9.27378L22.3372 9.11719L21.216 9.42387L21.2608 9.58046L22.382 9.27378Z" fill="#C63D32"/>
<path d="M22.104 8.42318L22.0454 8.271L20.9559 8.67205L21.0145 8.82423L22.104 8.42318Z" fill="#C63D32"/>
<path d="M21.7436 7.58899L21.6716 7.44238L20.622 7.93475L20.6939 8.08136L21.7436 7.58899Z" fill="#C63D32"/>
<path d="M21.3157 6.78738L21.231 6.64746L20.2292 7.2274L20.3139 7.36733L21.3157 6.78738Z" fill="#C63D32"/>
<path d="M20.8166 6.03305L20.7197 5.90088L19.7735 6.56398L19.8704 6.69615L20.8166 6.03305Z" fill="#C63D32"/>
<path d="M20.2565 5.31775L20.1482 5.19434L19.2647 5.93555L19.373 6.05896L20.2565 5.31775Z" fill="#C63D32"/>
<path d="M19.6384 4.66059L19.5195 4.54688L18.7054 5.36056L18.8243 5.47427L19.6384 4.66059Z" fill="#C63D32"/>
<path d="M18.9555 4.04553L18.8269 3.94238L18.0884 4.82234L18.217 4.92549L18.9555 4.04553Z" fill="#C63D32"/>
<path d="M18.2191 3.50684L18.0818 3.41504L17.4246 4.35458L17.5618 4.44638L18.2191 3.50684Z" fill="#C63D32"/>
<path d="M17.4384 3.01725L17.2935 2.9375L16.7225 3.92947L16.8674 4.00923L17.4384 3.01725Z" fill="#C63D32"/>
<path d="M16.6259 2.61055L16.4744 2.54346L15.994 3.58031L16.1455 3.64741L16.6259 2.61055Z" fill="#C63D32"/>
<path d="M15.7697 2.27171L15.6128 2.21777L15.2267 3.29162L15.3836 3.34555L15.7697 2.27171Z" fill="#C63D32"/>
<path d="M14.8969 2.00618L14.7358 1.96582L14.4469 3.06848L14.608 3.10884L14.8969 2.00618Z" fill="#C63D32"/>
<path d="M13.9886 1.80528L13.8245 1.77881L13.6349 2.9019L13.799 2.92837L13.9886 1.80528Z" fill="#C63D32"/>
<path d="M13.074 1.69598L12.9082 1.68359L12.8195 2.81856L12.9853 2.83095L13.074 1.69598Z" fill="#C63D32"/>
<path d="M12.1908 21.4062C17.5137 21.4062 21.8287 17.1872 21.8287 11.9829C21.8287 6.77852 17.5137 2.55957 12.1908 2.55957C6.86799 2.55957 2.55298 6.77852 2.55298 11.9829C2.55298 17.1872 6.86799 21.4062 12.1908 21.4062Z" fill="#E76651"/>
<path d="M16.4648 6.60828C16.1239 6.28306 15.7331 6.03101 15.284 5.84401C14.835 5.65701 14.361 5.56757 13.8537 5.5757C13.3049 5.5757 12.8309 5.69766 12.4317 5.91719C12.0326 6.13671 11.7 6.42941 11.4422 6.80341L10.752 5.74644H9.86221L8.82275 5.77084L8.83939 7.13677V7.16116L8.85602 8.5027V8.52709L8.87265 9.89302H9.91211L9.97031 14.7144H8.93086L8.94749 16.0885V16.1129L8.96412 17.4544V17.4788L8.98075 18.8447H10.0202L11.7914 18.8122H12.8309L12.8143 17.4382V17.4138L12.7976 16.0722V16.0478L12.7893 15.308C13.1386 15.4462 13.5377 15.5112 13.9785 15.5112C14.4857 15.5112 14.9597 15.4055 15.4088 15.2104C15.8495 15.0153 16.2403 14.7551 16.5729 14.4299C16.9056 14.1046 17.1634 13.7225 17.3546 13.2835C17.5459 12.8444 17.6374 12.381 17.629 11.885C17.629 11.6492 17.6041 9.38893 17.5958 9.15314C17.5958 8.65718 17.4877 8.19374 17.2881 7.75469C17.0885 7.32377 16.8224 6.94163 16.4815 6.61641L16.4648 6.60828ZM14.9763 10.8931C14.9763 11.0232 14.9514 11.1451 14.9015 11.259C14.8516 11.3728 14.7851 11.4785 14.6936 11.5679C14.6021 11.6573 14.5023 11.7224 14.3859 11.7793C14.2695 11.8362 14.1448 11.8606 14.0117 11.8606C13.8787 11.8606 13.7539 11.8362 13.6375 11.7874C13.5211 11.7387 13.413 11.6736 13.3298 11.5842C13.2384 11.4947 13.1718 11.3972 13.1219 11.2833C13.0721 11.1695 13.0388 11.0476 13.0388 10.9175V10.1939C13.0305 10.0638 13.0554 9.9418 13.1053 9.82798C13.1552 9.71415 13.2217 9.60845 13.3132 9.51902C13.3964 9.42958 13.5045 9.36454 13.6209 9.30762C13.7373 9.25884 13.862 9.22632 13.9951 9.22632C14.1281 9.22632 14.2529 9.25071 14.3693 9.29949C14.4857 9.34827 14.5938 9.41332 14.6853 9.50275C14.7768 9.59219 14.8433 9.68976 14.9015 9.80358C14.9514 9.91741 14.9847 10.0394 14.9847 10.1695V10.8931H14.9763Z" fill="white"/>
</g>
<defs>
<clipPath id="clip0_2163_4463">
<rect width="24.3815" height="23.8387" fill="white" transform="translate(0 0.0634766)"/>
</clipPath>
</defs>
</svg>
