<svg width="28" height="28" viewBox="0 0 28 28" fill="none" xmlns="http://www.w3.org/2000/svg">
<g clip-path="url(#clip0_1238_15802)">
<path d="M14 28C21.732 28 28 21.732 28 14C28 6.26801 21.732 0 14 0C6.26801 0 0 6.26801 0 14C0 21.732 6.26801 28 14 28Z" fill="#E76651"/>
<path d="M13.9999 26.264C20.773 26.264 26.2636 20.7733 26.2636 14.0003C26.2636 7.22722 20.773 1.73657 13.9999 1.73657C7.22686 1.73657 1.73621 7.22722 1.73621 14.0003C1.73621 20.7733 7.22686 26.264 13.9999 26.264Z" fill="#C63D32"/>
<path d="M13.9999 25.8527C20.5459 25.8527 25.8524 20.5461 25.8524 14.0002C25.8524 7.45424 20.5459 2.14771 13.9999 2.14771C7.454 2.14771 2.14746 7.45424 2.14746 14.0002C2.14746 20.5461 7.454 25.8527 13.9999 25.8527Z" fill="#E76651"/>
<path d="M14 27.0771C21.2222 27.0771 27.077 21.2224 27.077 14.0001C27.077 6.77788 21.2222 0.923096 14 0.923096C6.77776 0.923096 0.922974 6.77788 0.922974 14.0001C0.922974 21.2224 6.77776 27.0771 14 27.0771Z" fill="white"/>
<path d="M13.9999 26.264C20.773 26.264 26.2636 20.7733 26.2636 14.0003C26.2636 7.22722 20.773 1.73657 13.9999 1.73657C7.22686 1.73657 1.73621 7.22722 1.73621 14.0003C1.73621 20.7733 7.22686 26.264 13.9999 26.264Z" fill="#C63D32"/>
<path d="M13.9999 25.8527C20.5459 25.8527 25.8524 20.5461 25.8524 14.0002C25.8524 7.45424 20.5459 2.14771 13.9999 2.14771C7.454 2.14771 2.14746 7.45424 2.14746 14.0002C2.14746 20.5461 7.454 25.8527 13.9999 25.8527Z" fill="#E76651"/>
<path d="M14.0958 1.87354H13.8993V3.20774H14.0958V1.87354Z" fill="#C63D32"/>
<path d="M13.0431 1.90792L12.8474 1.92505L12.9637 3.25418L13.1594 3.23705L13.0431 1.90792Z" fill="#C63D32"/>
<path d="M11.9918 2.03815L11.7983 2.07227L12.03 3.3862L12.2235 3.35208L11.9918 2.03815Z" fill="#C63D32"/>
<path d="M10.9527 2.26018L10.7629 2.31104L11.1083 3.59978L11.298 3.54893L10.9527 2.26018Z" fill="#C63D32"/>
<path d="M9.94488 2.56879L9.76025 2.63599L10.2166 3.88973L10.4012 3.82253L9.94488 2.56879Z" fill="#C63D32"/>
<path d="M8.96835 2.96726L8.79028 3.05029L9.35414 4.25949L9.53221 4.17646L8.96835 2.96726Z" fill="#C63D32"/>
<path d="M8.02599 3.44546L7.85583 3.5437L8.52294 4.69916L8.69309 4.60092L8.02599 3.44546Z" fill="#C63D32"/>
<path d="M7.12396 4.0084L6.96301 4.12109L7.72828 5.21401L7.88922 5.10132L7.12396 4.0084Z" fill="#C63D32"/>
<path d="M6.27905 4.6513L6.12854 4.77759L6.98615 5.79965L7.13666 5.67336L6.27905 4.6513Z" fill="#C63D32"/>
<path d="M5.49049 5.35155L5.35156 5.49048L6.29499 6.4339L6.43392 6.29497L5.49049 5.35155Z" fill="#C63D32"/>
<path d="M4.77326 6.13123L4.64697 6.28174L5.66903 7.13935L5.79532 6.98884L4.77326 6.13123Z" fill="#C63D32"/>
<path d="M4.12087 6.96259L4.00818 7.12354L5.10109 7.8888L5.21379 7.72786L4.12087 6.96259Z" fill="#C63D32"/>
<path d="M3.55051 7.84743L3.45227 8.01758L4.60772 8.68468L4.70596 8.51453L3.55051 7.84743Z" fill="#C63D32"/>
<path d="M3.04995 8.78385L2.96692 8.96191L4.17612 9.52577L4.25915 9.34771L3.04995 8.78385Z" fill="#C63D32"/>
<path d="M2.63678 9.75776L2.56958 9.94238L3.82332 10.3987L3.89052 10.2141L2.63678 9.75776Z" fill="#C63D32"/>
<path d="M2.3133 10.7646L2.26245 10.9543L3.55119 11.2997L3.60204 11.1099L2.3133 10.7646Z" fill="#C63D32"/>
<path d="M2.07562 11.7948L2.0415 11.9883L3.35544 12.22L3.38956 12.0265L2.07562 11.7948Z" fill="#C63D32"/>
<path d="M1.92765 12.8463L1.91052 13.042L3.23965 13.1583L3.25677 12.9625L1.92765 12.8463Z" fill="#C63D32"/>
<path d="M1.87329 13.8997V14.0962H3.20749V13.8997H1.87329Z" fill="#C63D32"/>
<path d="M1.90951 14.9593L1.92664 15.155L3.25576 15.0387L3.23864 14.843L1.90951 14.9593Z" fill="#C63D32"/>
<path d="M2.03815 16.0065L2.07227 16.2L3.3862 15.9683L3.35208 15.7748L2.03815 16.0065Z" fill="#C63D32"/>
<path d="M2.26104 17.0404L2.31189 17.2302L3.60063 16.8849L3.54978 16.6951L2.26104 17.0404Z" fill="#C63D32"/>
<path d="M2.56781 18.0522L2.63501 18.2368L3.88875 17.7805L3.82155 17.5959L2.56781 18.0522Z" fill="#C63D32"/>
<path d="M2.96848 19.0309L3.05151 19.209L4.26071 18.6451L4.17768 18.4671L2.96848 19.0309Z" fill="#C63D32"/>
<path d="M3.44986 19.9741L3.5481 20.1443L4.70355 19.4772L4.60531 19.307L3.44986 19.9741Z" fill="#C63D32"/>
<path d="M4.01109 20.872L4.12378 21.033L5.21669 20.2677L5.104 20.1067L4.01109 20.872Z" fill="#C63D32"/>
<path d="M4.64666 21.7199L4.77295 21.8704L5.79501 21.0128L5.66872 20.8622L4.64666 21.7199Z" fill="#C63D32"/>
<path d="M5.35643 22.5044L5.49536 22.6433L6.43879 21.6999L6.29986 21.561L5.35643 22.5044Z" fill="#C63D32"/>
<path d="M6.13196 23.2267L6.28247 23.353L7.14008 22.331L6.98957 22.2047L6.13196 23.2267Z" fill="#C63D32"/>
<path d="M6.96198 23.8763L7.12292 23.989L7.88819 22.8961L7.72725 22.7834L6.96198 23.8763Z" fill="#C63D32"/>
<path d="M7.84718 24.4496L8.01733 24.5479L8.68444 23.3924L8.51428 23.2942L7.84718 24.4496Z" fill="#C63D32"/>
<path d="M8.78482 24.9441L8.96289 25.0271L9.52675 23.8179L9.34868 23.7349L8.78482 24.9441Z" fill="#C63D32"/>
<path d="M9.75593 25.3593L9.94055 25.4265L10.3969 24.1728L10.2122 24.1056L9.75593 25.3593Z" fill="#C63D32"/>
<path d="M10.7654 25.6857L10.9552 25.7366L11.3005 24.4478L11.1107 24.397L10.7654 25.6857Z" fill="#C63D32"/>
<path d="M11.7963 25.9241L11.9897 25.9583L12.2214 24.6443L12.0279 24.6102L11.7963 25.9241Z" fill="#C63D32"/>
<path d="M12.8437 26.0708L13.0394 26.0879L13.1557 24.7588L12.96 24.7416L12.8437 26.0708Z" fill="#C63D32"/>
<path d="M13.9039 26.1267H14.1003V24.7925H13.9039V26.1267Z" fill="#C63D32"/>
<path d="M14.9575 26.0882L15.1532 26.071L15.0369 24.7419L14.8412 24.759L14.9575 26.0882Z" fill="#C63D32"/>
<path d="M16.0061 25.9589L16.1996 25.9248L15.9679 24.6109L15.7744 24.645L16.0061 25.9589Z" fill="#C63D32"/>
<path d="M17.0392 25.7366L17.229 25.6858L16.8837 24.3971L16.6939 24.4479L17.0392 25.7366Z" fill="#C63D32"/>
<path d="M18.0528 25.4307L18.2374 25.3635L17.7811 24.1098L17.5965 24.177L18.0528 25.4307Z" fill="#C63D32"/>
<path d="M19.0331 25.0308L19.2112 24.9478L18.6473 23.7386L18.4693 23.8216L19.0331 25.0308Z" fill="#C63D32"/>
<path d="M19.9779 24.5477L20.1481 24.4495L19.481 23.294L19.3108 23.3922L19.9779 24.5477Z" fill="#C63D32"/>
<path d="M20.8735 23.9884L21.0344 23.8757L20.2692 22.7828L20.1082 22.8955L20.8735 23.9884Z" fill="#C63D32"/>
<path d="M21.7192 23.3499L21.8698 23.2236L21.0121 22.2016L20.8616 22.3279L21.7192 23.3499Z" fill="#C63D32"/>
<path d="M22.5039 22.6441L22.6428 22.5051L21.6994 21.5617L21.5605 21.7006L22.5039 22.6441Z" fill="#C63D32"/>
<path d="M23.2222 21.8717L23.3485 21.7212L22.3265 20.8636L22.2002 21.0141L23.2222 21.8717Z" fill="#C63D32"/>
<path d="M23.8766 21.0364L23.9893 20.8755L22.8963 20.1102L22.7836 20.2712L23.8766 21.0364Z" fill="#C63D32"/>
<path d="M24.4517 20.1443L24.5499 19.9741L23.3945 19.307L23.2962 19.4772L24.4517 20.1443Z" fill="#C63D32"/>
<path d="M24.9446 19.2127L25.0276 19.0347L23.8184 18.4708L23.7354 18.6489L24.9446 19.2127Z" fill="#C63D32"/>
<path d="M25.3607 18.2388L25.4279 18.0542L24.1741 17.5979L24.1069 17.7825L25.3607 18.2388Z" fill="#C63D32"/>
<path d="M25.6833 17.2357L25.7341 17.0459L24.4454 16.7006L24.3945 16.8904L25.6833 17.2357Z" fill="#C63D32"/>
<path d="M25.9224 16.1996L25.9565 16.0061L24.6426 15.7744L24.6085 15.9679L25.9224 16.1996Z" fill="#C63D32"/>
<path d="M26.0728 15.1581L26.09 14.9624L24.7608 14.8461L24.7437 15.0418L26.0728 15.1581Z" fill="#C63D32"/>
<path d="M26.1219 14.0961V13.8997H24.7877V14.0961H26.1219Z" fill="#C63D32"/>
<path d="M26.0898 13.0405L26.0726 12.8447L24.7435 12.961L24.7606 13.1567L26.0898 13.0405Z" fill="#C63D32"/>
<path d="M25.959 11.9879L25.9249 11.7944L24.611 12.0261L24.6451 12.2196L25.959 11.9879Z" fill="#C63D32"/>
<path d="M25.7377 10.9598L25.6869 10.77L24.3981 11.1153L24.449 11.3051L25.7377 10.9598Z" fill="#C63D32"/>
<path d="M25.4252 9.94439L25.358 9.75977L24.1043 10.2161L24.1715 10.4007L25.4252 9.94439Z" fill="#C63D32"/>
<path d="M25.0276 8.96127L24.9446 8.7832L23.7354 9.34706L23.8184 9.52513L25.0276 8.96127Z" fill="#C63D32"/>
<path d="M24.5476 8.0222L24.4493 7.85205L23.2939 8.51915L23.3921 8.68931L24.5476 8.0222Z" fill="#C63D32"/>
<path d="M23.9912 7.12701L23.8785 6.96606L22.7856 7.73133L22.8983 7.89228L23.9912 7.12701Z" fill="#C63D32"/>
<path d="M23.353 6.28308L23.2267 6.13257L22.2046 6.99018L22.3309 7.14069L23.353 6.28308Z" fill="#C63D32"/>
<path d="M22.6443 5.49586L22.5054 5.35693L21.5619 6.30036L21.7009 6.43929L22.6443 5.49586Z" fill="#C63D32"/>
<path d="M21.8647 4.77449L21.7142 4.64819L20.8566 5.67025L21.0071 5.79654L21.8647 4.77449Z" fill="#C63D32"/>
<path d="M21.0358 4.12051L20.8749 4.00781L20.1096 5.10073L20.2706 5.21342L21.0358 4.12051Z" fill="#C63D32"/>
<path d="M20.1439 3.54843L19.9738 3.4502L19.3067 4.60565L19.4768 4.70389L20.1439 3.54843Z" fill="#C63D32"/>
<path d="M19.2137 3.04934L19.0356 2.96631L18.4718 4.17551L18.6499 4.25854L19.2137 3.04934Z" fill="#C63D32"/>
<path d="M18.2371 2.63556L18.0525 2.56836L17.5962 3.8221L17.7808 3.8893L18.2371 2.63556Z" fill="#C63D32"/>
<path d="M17.2378 2.31135L17.048 2.2605L16.7027 3.54924L16.8924 3.60009L17.2378 2.31135Z" fill="#C63D32"/>
<path d="M16.2009 2.07269L16.0074 2.03857L15.7758 3.35251L15.9693 3.38663L16.2009 2.07269Z" fill="#C63D32"/>
<path d="M15.1554 1.92533L14.9597 1.9082L14.8434 3.23733L15.0392 3.25445L15.1554 1.92533Z" fill="#C63D32"/>
<path d="M13.9999 25.0668C20.1118 25.0668 25.0665 20.1121 25.0665 14.0002C25.0665 7.88827 20.1118 2.93359 13.9999 2.93359C7.88803 2.93359 2.93335 7.88827 2.93335 14.0002C2.93335 20.1121 7.88803 25.0668 13.9999 25.0668Z" fill="#E76651"/>
<path d="M18.9758 7.74013C18.5875 7.35632 18.1397 7.05019 17.6279 6.83087C17.1162 6.61154 16.5679 6.49731 15.9876 6.49731C15.3525 6.49731 14.8087 6.62525 14.3473 6.87656C13.8858 7.12786 13.502 7.47055 13.2004 7.90006L12.4236 6.6481H10.203V11.4869H11.4001V17.1664H10.203V22.0051H14.626V17.902C15.0235 18.0665 15.4804 18.1533 15.9922 18.1533C16.5725 18.1533 17.1208 18.0437 17.6325 17.8198C18.1443 17.6004 18.592 17.2989 18.9804 16.9196C19.3642 16.5404 19.6704 16.0926 19.8897 15.5809C20.109 15.0691 20.2232 14.5208 20.2232 13.9405V10.7375C20.2232 10.1572 20.1136 9.60893 19.8897 9.09718C19.6704 8.58543 19.3642 8.13765 18.9804 7.74927L18.9758 7.74013ZM17.2076 12.7571C17.2076 12.9125 17.1802 13.0541 17.1208 13.1912C17.0614 13.3283 16.9837 13.4471 16.8786 13.5476C16.7781 13.6481 16.6593 13.7303 16.5222 13.7897C16.3851 13.8491 16.2435 13.8766 16.0881 13.8766C15.9328 13.8766 15.7911 13.8491 15.654 13.7897C15.517 13.7303 15.4027 13.6527 15.3022 13.5476C15.2017 13.4471 15.124 13.3283 15.0646 13.1912C15.0052 13.0541 14.9778 12.9125 14.9778 12.7571V11.9118C14.9778 11.7565 15.0052 11.6148 15.0646 11.4777C15.124 11.3407 15.2017 11.2219 15.3022 11.1213C15.4027 11.0208 15.5215 10.9386 15.654 10.8792C15.7911 10.8198 15.9328 10.7924 16.0881 10.7924C16.2435 10.7924 16.3851 10.8198 16.5222 10.8792C16.6593 10.9386 16.7781 11.0162 16.8786 11.1213C16.9791 11.2219 17.0614 11.3407 17.1208 11.4777C17.1802 11.6148 17.2076 11.7565 17.2076 11.9118V12.7571Z" fill="white"/>
</g>
<defs>
<clipPath id="clip0_1238_15802">
<rect width="28" height="28" fill="white"/>
</clipPath>
</defs>
</svg>
