<svg width="72" height="47" viewBox="0 0 72 47" fill="none" xmlns="http://www.w3.org/2000/svg">
<path d="M42.4029 2.98109C41.507 2.0549 40.4649 1.32672 39.2765 0.796555C38.0881 0.266391 36.8174 0.000244141 35.4683 0.000244141C34.1193 0.000244141 32.8486 0.266391 31.6602 0.796555C30.4718 1.32885 29.4359 2.05703 28.5564 2.98109C27.6749 3.90728 26.9788 4.98464 26.466 6.21317C25.9511 7.44171 25.6957 8.75541 25.6957 10.15V17.8363C25.6957 19.2331 25.9531 20.5446 26.466 21.7732C26.9788 23.0017 27.677 24.0791 28.5564 25.0053C29.4379 25.9315 30.4718 26.6596 31.6602 27.1898C32.8486 27.72 34.1173 27.9861 35.4683 27.9861C36.8194 27.9861 38.0881 27.72 39.2765 27.1898C40.4649 26.6596 41.507 25.9315 42.4029 25.0053C43.2988 24.0791 44.0032 23.0017 44.516 21.7732C45.0289 20.5446 45.2863 19.2331 45.2863 17.8363V10.15C45.2863 8.75541 45.0289 7.44171 44.516 6.21317C44.0011 4.98464 43.2968 3.90728 42.4029 2.98109Z" fill="black"/>
<path d="M70.4055 6.21317C69.8906 4.98464 69.1863 3.90728 68.2924 2.98109C67.3965 2.0549 66.3544 1.32672 65.166 0.796555C63.9776 0.266391 62.7069 0.000244141 61.3578 0.000244141C59.8894 0.000244141 58.6207 0.304716 57.5497 0.911531C56.4787 1.51835 55.591 2.33808 54.8867 3.3686L53.0804 0.364333H47.9294V11.9641H50.7037V25.5801H47.9294V37.1799H58.1882V27.341C59.115 27.7391 60.1695 27.9393 61.3578 27.9393C62.7069 27.9393 63.9776 27.6731 65.166 27.143C66.3544 26.6128 67.3965 25.891 68.2924 24.9818C69.1883 24.0706 69.8927 23.0017 70.4055 21.7732C70.9184 20.5446 71.1758 19.2331 71.1758 17.8363V10.15C71.1758 8.75541 70.9184 7.44171 70.4055 6.21317Z" fill="black"/>
<path d="M20.363 2.98084C19.4671 2.05465 18.4249 1.32648 17.2365 0.796311C16.0482 0.266147 14.7774 0 13.4284 0C11.9599 0 10.6912 0.304472 9.62025 0.911287C8.54927 1.5181 7.6616 2.33783 6.95723 3.36835L5.15098 0.364089H0V11.9638H2.77424V25.5799H0V37.1796H10.2587V27.3407C11.1855 27.7389 12.24 27.939 13.4284 27.939C14.7774 27.939 16.0482 27.6729 17.2365 27.1427C18.4249 26.6126 19.4671 25.8908 20.363 24.9816C21.2589 24.0703 21.9633 23.0015 22.4761 21.7729C22.9889 20.5444 23.2464 19.2328 23.2464 17.8361V10.1498C23.2464 8.75516 22.9889 7.44146 22.4761 6.21293C21.9633 4.9844 21.2568 3.90703 20.363 2.98084Z" fill="black"/>
<path d="M42.4029 12.0834C41.507 11.1572 40.4649 10.429 39.2765 9.89885C38.0881 9.36869 36.8174 9.10254 35.4683 9.10254C34.1193 9.10254 32.8486 9.36869 31.6602 9.89885C30.4718 10.4311 29.4359 11.1593 28.5564 12.0834C27.6749 13.0096 26.9788 14.0869 26.466 15.3155C25.9511 16.544 25.6957 17.8577 25.6957 19.2523V26.9386C25.6957 28.3354 25.9531 29.6469 26.466 30.8755C26.9788 32.104 27.677 33.1814 28.5564 34.1076C29.4379 35.0337 30.4718 35.7619 31.6602 36.2921C32.8486 36.8223 34.1173 37.0884 35.4683 37.0884C36.8194 37.0884 38.0881 36.8223 39.2765 36.2921C40.4649 35.7619 41.507 35.0337 42.4029 34.1076C43.2988 33.1814 44.0032 32.104 44.516 30.8755C45.0289 29.6469 45.2863 28.3354 45.2863 26.9386V19.2523C45.2863 17.8577 45.0289 16.544 44.516 15.3155C44.0011 14.0869 43.2968 13.0096 42.4029 12.0834ZM38.0758 24.109C38.0758 24.4773 38.0078 24.8244 37.8719 25.148C37.7359 25.4716 37.5506 25.7569 37.3137 26.0018C37.0769 26.2466 36.8029 26.4383 36.4878 26.5788C36.1748 26.7193 35.8391 26.7896 35.4828 26.7896C35.1264 26.7896 34.7907 26.7193 34.4777 26.5788C34.1646 26.4383 33.8907 26.2466 33.658 26.0018C33.4252 25.7569 33.2419 25.4738 33.106 25.148C32.9701 24.8244 32.9021 24.4773 32.9021 24.109V22.0799C32.9021 21.7115 32.9701 21.3645 33.106 21.0408C33.2419 20.7172 33.4252 20.4319 33.658 20.187C33.8907 19.9422 34.1626 19.7505 34.4777 19.61C34.7907 19.4695 35.1264 19.3992 35.4828 19.3992C35.8391 19.3992 36.1748 19.4695 36.4878 19.61C36.8009 19.7505 37.0769 19.9422 37.3137 20.187C37.5506 20.4319 37.7359 20.7151 37.8719 21.0408C38.0078 21.3645 38.0758 21.7115 38.0758 22.0799V24.109Z" fill="#F56651"/>
<path d="M70.4055 15.3155C69.8906 14.0869 69.1863 13.0096 68.2924 12.0834C67.3965 11.1572 66.3544 10.429 65.166 9.89885C63.9776 9.36869 62.7069 9.10254 61.3578 9.10254C59.8894 9.10254 58.6207 9.40701 57.5497 10.0138C56.4787 10.6206 55.591 11.4404 54.8867 12.4709L53.0804 9.46663H47.9294V21.0664H50.7037V34.6824H47.9294V46.2822H58.1882V36.4433C59.115 36.8414 60.1695 37.0416 61.3578 37.0416C62.7069 37.0416 63.9776 36.7754 65.166 36.2453C66.3544 35.7151 67.3965 34.9933 68.2924 34.0841C69.1883 33.1729 69.8927 32.104 70.4055 30.8755C70.9184 29.6469 71.1758 28.3354 71.1758 26.9386V19.2523C71.1758 17.8577 70.9184 16.544 70.4055 15.3155ZM64.1959 24.109C64.1959 24.4773 64.128 24.8244 63.992 25.148C63.8561 25.4716 63.6707 25.7569 63.4339 26.0018C63.197 26.2467 62.9231 26.4383 62.608 26.5788C62.2949 26.7193 61.9592 26.7896 61.6029 26.7896C61.2466 26.7896 60.9109 26.7193 60.5979 26.5788C60.2848 26.4383 60.0109 26.2467 59.7781 26.0018C59.5454 25.7569 59.3621 25.4738 59.2262 25.148C59.0903 24.8244 59.0223 24.4773 59.0223 24.109V22.0799C59.0223 21.7115 59.0903 21.3645 59.2262 21.0408C59.3621 20.7172 59.5454 20.4319 59.7781 20.187C60.0109 19.9422 60.2827 19.7505 60.5979 19.61C60.9109 19.4695 61.2466 19.3992 61.6029 19.3992C61.9592 19.3992 62.2949 19.4695 62.608 19.61C62.9211 19.7505 63.197 19.9422 63.4339 20.187C63.6707 20.4319 63.8561 20.7151 63.992 21.0408C64.128 21.3645 64.1959 21.7115 64.1959 22.0799V24.109Z" fill="#F56651"/>
<path d="M20.363 12.0834C19.4671 11.1572 18.4249 10.429 17.2365 9.89885C16.0482 9.36869 14.7774 9.10254 13.4284 9.10254C11.9599 9.10254 10.6912 9.40701 9.62025 10.0138C8.54927 10.6206 7.6616 11.4404 6.95723 12.4709L5.15304 9.46663H0V21.0664H2.77424V34.6824H0V46.2822H10.2587V36.4433C11.1855 36.8414 12.24 37.0416 13.4284 37.0416C14.7774 37.0416 16.0482 36.7754 17.2365 36.2453C18.4249 35.7151 19.4671 34.9933 20.363 34.0841C21.2589 33.1729 21.9633 32.104 22.4761 30.8755C22.9889 29.6469 23.2464 28.3354 23.2464 26.9386V19.2523C23.2464 17.8577 22.9889 16.544 22.4761 15.3155C21.9612 14.0869 21.2568 13.0096 20.363 12.0834ZM16.2665 24.109C16.2665 24.4773 16.1985 24.8244 16.0626 25.148C15.9267 25.4716 15.7413 25.7569 15.5044 26.0018C15.2676 26.2467 14.9937 26.4383 14.6786 26.5788C14.3655 26.7193 14.0298 26.7896 13.6735 26.7896C13.3172 26.7896 12.9815 26.7193 12.6684 26.5788C12.3554 26.4383 12.0814 26.2467 11.8487 26.0018C11.616 25.7569 11.4327 25.4738 11.2967 25.148C11.1608 24.8244 11.0928 24.4773 11.0928 24.109V22.0799C11.0928 21.7115 11.1608 21.3645 11.2967 21.0408C11.4327 20.7172 11.616 20.4319 11.8487 20.187C12.0814 19.9422 12.3533 19.7505 12.6684 19.61C12.9815 19.4695 13.3172 19.3992 13.6735 19.3992C14.0298 19.3992 14.3655 19.4695 14.6786 19.61C14.9916 19.7505 15.2676 19.9422 15.5044 20.187C15.7413 20.4319 15.9267 20.7151 16.0626 21.0408C16.1985 21.3645 16.2665 21.7115 16.2665 22.0799V24.109Z" fill="#F56651"/>
</svg>
