<svg width="32" height="32" viewBox="0 0 32 32" fill="none" xmlns="http://www.w3.org/2000/svg">
<path d="M27.6667 13.3333C27.6667 12.781 27.219 12.3333 26.6667 12.3333C26.1144 12.3333 25.6667 12.781 25.6667 13.3333H27.6667ZM6.33333 13.3333C6.33333 12.781 5.88562 12.3333 5.33333 12.3333C4.78105 12.3333 4.33333 12.781 4.33333 13.3333H6.33333ZM6.78936 27.7093L7.24335 26.8183H7.24335L6.78936 27.7093ZM5.62398 26.544L6.51499 26.09L6.51499 26.09L5.62398 26.544ZM26.376 26.544L25.485 26.09V26.09L26.376 26.544ZM25.2106 27.7093L24.7567 26.8183L25.2106 27.7093ZM6.66667 14.3333C7.21895 14.3333 7.66667 13.8856 7.66667 13.3333C7.66667 12.781 7.21895 12.3333 6.66667 12.3333V14.3333ZM25.3333 12.3333C24.781 12.3333 24.3333 12.781 24.3333 13.3333C24.3333 13.8856 24.781 14.3333 25.3333 14.3333V12.3333ZM4.14532 12.6053L3.25432 13.0593L4.14532 12.6053ZM4.72801 13.188L5.182 12.297H5.182L4.72801 13.188ZM27.8547 12.6053L26.9637 12.1513V12.1513L27.8547 12.6053ZM27.272 13.188L27.726 14.079L27.726 14.079L27.272 13.188ZM27.272 8.14531L27.726 7.25431L27.726 7.25431L27.272 8.14531ZM27.8547 8.728L26.9637 9.18199V9.18199L27.8547 8.728ZM4.72801 8.14531L4.27402 7.25431H4.27402L4.72801 8.14531ZM4.14532 8.728L3.25432 8.27401H3.25432L4.14532 8.728ZM20.7786 7.16794C20.3191 7.47429 20.1949 8.09516 20.5013 8.55469C20.8076 9.01422 21.4285 9.13839 21.888 8.83204L20.7786 7.16794ZM10.112 8.83204C10.5715 9.13839 11.1924 9.01422 11.4987 8.55469C11.8051 8.09516 11.6809 7.47429 11.2214 7.16794L10.112 8.83204ZM20.3333 16C20.3333 16.5523 20.781 17 21.3333 17C21.8856 17 22.3333 16.5523 22.3333 16H20.3333ZM9.66667 16C9.66667 16.5523 10.1144 17 10.6667 17C11.219 17 11.6667 16.5523 11.6667 16H9.66667ZM15 28C15 28.5523 15.4477 29 16 29C16.5523 29 17 28.5523 17 28H15ZM17 13.3333C17 12.781 16.5523 12.3333 16 12.3333C15.4477 12.3333 15 12.781 15 13.3333H17ZM25.6667 13.3333V23.7333H27.6667V13.3333H25.6667ZM22.4 27H9.6V29H22.4V27ZM6.33333 23.7333V13.3333H4.33333V23.7333H6.33333ZM9.6 27C8.83676 27 8.32448 26.9992 7.92997 26.967C7.54714 26.9357 7.3641 26.8799 7.24335 26.8183L6.33537 28.6003C6.78505 28.8295 7.26059 28.919 7.76711 28.9603C8.26195 29.0008 8.86976 29 9.6 29V27ZM4.33333 23.7333C4.33333 24.4636 4.33256 25.0714 4.37299 25.5662C4.41437 26.0727 4.50385 26.5483 4.73298 26.998L6.51499 26.09C6.45347 25.9692 6.39762 25.7862 6.36634 25.4034C6.33411 25.0088 6.33333 24.4966 6.33333 23.7333H4.33333ZM7.24335 26.8183C6.92974 26.6585 6.67478 26.4036 6.51499 26.09L4.73298 26.998C5.08451 27.6879 5.64544 28.2488 6.33537 28.6003L7.24335 26.8183ZM25.6667 23.7333C25.6667 24.4966 25.6659 25.0088 25.6337 25.4034C25.6024 25.7862 25.5465 25.9692 25.485 26.09L27.267 26.998C27.4961 26.5483 27.5856 26.0727 27.627 25.5662C27.6674 25.0714 27.6667 24.4636 27.6667 23.7333H25.6667ZM22.4 29C23.1302 29 23.7381 29.0008 24.2329 28.9603C24.7394 28.919 25.2149 28.8295 25.6646 28.6003L24.7567 26.8183C24.6359 26.8799 24.4529 26.9357 24.07 26.967C23.6755 26.9992 23.1632 27 22.4 27V29ZM25.485 26.09C25.3252 26.4036 25.0703 26.6585 24.7567 26.8183L25.6646 28.6003C26.3546 28.2488 26.9155 27.6879 27.267 26.998L25.485 26.09ZM6.13333 8.99999H25.8667V6.99999H6.13333V8.99999ZM27 10.1333V11.2H29V10.1333H27ZM5 11.2V10.1333H3V11.2H5ZM6.66667 12.3333H6.13333V14.3333H6.66667V12.3333ZM25.8667 12.3333H25.3333V14.3333H25.8667V12.3333ZM3 11.2C3 11.5569 2.99922 11.8846 3.02149 12.1572C3.0447 12.4413 3.09786 12.7522 3.25432 13.0593L5.03633 12.1513C5.04747 12.1732 5.02796 12.1548 5.01484 11.9943C5.00078 11.8221 5 11.5899 5 11.2H3ZM6.13333 12.3333C5.74346 12.3333 5.5112 12.3325 5.33903 12.3185C5.17854 12.3054 5.16014 12.2859 5.182 12.297L4.27402 14.079C4.5811 14.2355 4.89199 14.2886 5.17617 14.3118C5.44867 14.3341 5.77647 14.3333 6.13333 14.3333V12.3333ZM3.25432 13.0593C3.47802 13.4983 3.83498 13.8553 4.27402 14.079L5.182 12.297C5.11928 12.265 5.06829 12.214 5.03633 12.1513L3.25432 13.0593ZM27 11.2C27 11.5899 26.9992 11.8221 26.9852 11.9943C26.972 12.1548 26.9525 12.1732 26.9637 12.1513L28.7457 13.0593C28.9021 12.7522 28.9553 12.4413 28.9785 12.1572C29.0008 11.8846 29 11.5569 29 11.2H27ZM25.8667 14.3333C26.2235 14.3333 26.5513 14.3341 26.8238 14.3118C27.108 14.2886 27.4189 14.2355 27.726 14.079L26.818 12.297C26.8399 12.2859 26.8215 12.3054 26.661 12.3185C26.4888 12.3325 26.2565 12.3333 25.8667 12.3333V14.3333ZM26.9637 12.1513C26.9317 12.214 26.8807 12.265 26.818 12.297L27.726 14.079C28.165 13.8553 28.522 13.4983 28.7457 13.0593L26.9637 12.1513ZM25.8667 8.99999C26.2565 8.99999 26.4888 9.00077 26.661 9.01483C26.8215 9.02795 26.8399 9.04746 26.818 9.03632L27.726 7.25431C27.4189 7.09785 27.108 7.04469 26.8238 7.02148C26.5513 6.99921 26.2235 6.99999 25.8667 6.99999V8.99999ZM29 10.1333C29 9.77646 29.0008 9.44866 28.9785 9.17616C28.9553 8.89198 28.9021 8.58109 28.7457 8.27401L26.9637 9.18199C26.9525 9.16013 26.972 9.17853 26.9852 9.33902C26.9992 9.51119 27 9.74345 27 10.1333H29ZM26.818 9.03632C26.8807 9.06828 26.9317 9.11927 26.9637 9.18199L28.7457 8.27401C28.522 7.83497 28.165 7.47801 27.726 7.25431L26.818 9.03632ZM6.13333 6.99999C5.77647 6.99999 5.44867 6.99921 5.17617 7.02148C4.89199 7.04469 4.5811 7.09785 4.27402 7.25431L5.182 9.03632C5.16014 9.04746 5.17854 9.02795 5.33903 9.01483C5.5112 9.00077 5.74346 8.99999 6.13333 8.99999V6.99999ZM5 10.1333C5 9.74345 5.00078 9.51119 5.01484 9.33902C5.02796 9.17853 5.04747 9.16013 5.03633 9.18199L3.25432 8.27401C3.09786 8.58109 3.0447 8.89198 3.02149 9.17616C2.99922 9.44866 3 9.77646 3 10.1333H5ZM4.27402 7.25431C3.83498 7.47801 3.47802 7.83497 3.25432 8.27401L5.03633 9.18199C5.06829 9.11927 5.11928 9.06828 5.182 9.03632L4.27402 7.25431ZM16.9363 8.35111C17.2402 7.54078 17.8569 6.31043 18.688 5.30304C19.5436 4.26602 20.4546 3.66666 21.3333 3.66666V1.66666C19.5454 1.66666 18.1231 2.84507 17.1453 4.03027C16.1431 5.24511 15.4265 6.68142 15.0637 7.64887L16.9363 8.35111ZM21.3333 3.66666C22.3916 3.66666 22.7913 4.16399 22.8469 4.49772C22.9133 4.89594 22.6809 5.89978 20.7786 7.16794L21.888 8.83204C23.9858 7.43353 25.0867 5.7707 24.8197 4.16892C24.542 2.50266 22.9417 1.66666 21.3333 1.66666V3.66666ZM16.9363 7.64887C16.5735 6.68142 15.8569 5.24511 14.8547 4.03027C13.8769 2.84507 12.4546 1.66666 10.6667 1.66666V3.66666C11.5454 3.66666 12.4564 4.26602 13.312 5.30304C14.1431 6.31043 14.7598 7.54078 15.0637 8.35111L16.9363 7.64887ZM10.6667 1.66666C9.05828 1.66666 7.45798 2.50266 7.18027 4.16892C6.91331 5.7707 8.0142 7.43353 10.112 8.83204L11.2214 7.16794C9.31913 5.89978 9.08669 4.89594 9.15306 4.49772C9.20868 4.16399 9.60839 3.66666 10.6667 3.66666V1.66666ZM15.5862 8.91036C16.7993 9.46178 17.9523 10.0543 18.8253 11.0689C19.6712 12.0519 20.3333 13.5299 20.3333 16H22.3333C22.3333 13.1367 21.5511 11.1703 20.3413 9.76441C19.1588 8.39014 17.6451 7.64931 16.4138 7.08962L15.5862 8.91036ZM15.5862 7.08962C14.3549 7.64931 12.8412 8.39014 11.6587 9.76441C10.4489 11.1703 9.66667 13.1367 9.66667 16H11.6667C11.6667 13.5299 12.3288 12.0519 13.1747 11.0689C14.0477 10.0543 15.2007 9.46178 16.4138 8.91036L15.5862 7.08962ZM17 28V13.3333H15V28H17Z" fill="#F46651"/>
</svg>
