<svg width="32" height="32" viewBox="0 0 32 32" fill="none" xmlns="http://www.w3.org/2000/svg">
<path d="M20.6667 11.3333L25.6372 15.1993C26.2868 15.7045 26.6667 16.4909 26.6667 17.3138C26.6667 18.7865 25.4728 20 24 20H18.6667M11.3334 11.3333L6.36286 15.1993C5.7133 15.7045 5.33337 16.4909 5.33337 17.3138C5.33337 18.7865 6.52728 20 8.00004 20H13.3334M10.6667 25.3333H14.6667M17.3334 25.3333H21.3334M11.8566 10.9852L15.3477 27.5679C15.4963 28.2737 16.5038 28.2737 16.6524 27.5679L20.1435 10.9852C20.8445 7.65549 19.2108 4.27205 16.1674 2.75032C16.062 2.69765 15.938 2.69765 15.8327 2.75032C12.7892 4.27205 11.1556 7.65549 11.8566 10.9852Z" stroke="#F46651" stroke-width="2" stroke-linecap="round"/>
</svg>
