<svg width="167" height="167" viewBox="0 0 167 167" fill="none" xmlns="http://www.w3.org/2000/svg">
<circle cx="83.5" cy="83.5" r="83.5" fill="white"/>
<path d="M109.584 104.601C109.256 104.237 108.965 103.827 108.594 103.516C106.1 101.421 103.59 99.3456 101.082 97.2691C100.737 96.9849 100.37 96.7288 99.7791 96.2822V104.195H97.1758V86.7378H99.4866V93.2777C104.472 91.3565 108.08 87.0852 113.338 86.3615C113.418 86.5098 113.498 86.658 113.576 86.8054C109.604 89.2178 105.631 91.6311 101.475 94.1558C102.482 95.0094 103.35 95.7594 104.233 96.4901C107.1 98.864 109.976 101.226 112.838 103.606C113.185 103.895 113.463 104.267 113.774 104.6H109.585L109.584 104.601Z" fill="#621E45"/>
<path d="M47.5872 62.6707C48.5148 62.9313 49.4521 63.1637 50.3692 63.4576C52.242 64.0576 52.5364 64.605 52.1378 66.8034C51.8163 66.4525 51.5518 66.1621 51.2855 65.8744C49.4083 63.8436 46.2417 63.0786 43.7259 64.0471C41.2925 64.9831 40.752 67.0227 42.6266 68.8053C43.612 69.7413 44.8726 70.4431 46.1077 71.0466C47.899 71.9212 49.8366 72.5011 51.6122 73.4029C54.6632 74.953 55.2326 78.4295 52.8447 81.1551C52.7081 80.4901 52.5775 79.9331 52.4812 79.3699C52.1658 77.518 51.1199 76.2399 49.4214 75.4995C47.249 74.5538 45.0591 73.6503 42.8841 72.7099C40.1275 71.5168 39.0798 70.1343 39.2024 67.8973C39.3146 65.8507 41.1234 63.8497 43.5157 63.1137C43.9467 62.9813 44.3689 62.819 44.7946 62.6707C45.7257 62.6707 46.656 62.6707 47.5872 62.6707Z" fill="#621E45"/>
<path d="M128.294 64.348H90.873V62.6707H128.294V64.348Z" fill="#621E45"/>
<path d="M128.294 104.321H125.9V86.5641C126.743 86.5176 127.519 86.4746 128.294 86.4316V104.322V104.321Z" fill="#621E45"/>
<path d="M74.7108 90.4222C73.0876 93.2926 71.6265 95.8752 70.1663 98.4578C69.2509 100.078 68.304 101.681 67.4359 103.326C66.9401 104.267 66.2901 104.615 65.062 104.165C68.5755 98.0823 72.068 92.0372 75.655 85.8264C79.1563 92.0267 82.5734 98.0762 86.0195 104.177C82.8634 104.673 82.7442 104.616 81.326 102.108C79.1755 98.306 77.0224 94.5058 74.7099 90.4213L74.7108 90.4222Z" fill="#621E45"/>
<path d="M74.6501 67.2368C73.1478 69.9097 71.8076 72.2897 70.4717 74.6714C69.4477 76.4969 68.4342 78.3286 67.4085 80.1524C66.9092 81.0402 66.2531 81.5823 64.9917 81.0735C68.5096 74.9898 71.9836 68.9798 75.5874 62.7462C79.0991 68.9632 82.4882 74.9618 85.9018 81.0051C83.0138 81.642 82.6546 81.4911 81.3801 79.2216C79.1972 75.3346 77.0143 71.4475 74.6492 67.2359L74.6501 67.2368Z" fill="#621E45"/>
<path d="M54.9614 104.32C50.9775 104.32 47.0339 104.32 43.0903 104.32C42.1145 104.32 41.1299 104.389 40.1655 104.281C39.8081 104.241 39.498 103.783 39.166 103.514C39.491 103.224 39.8098 102.691 40.1436 102.681C42.6979 102.607 45.2557 102.634 47.8127 102.633C49.8116 102.631 51.8106 102.655 53.8095 102.625C54.8922 102.609 55.4353 102.952 54.9614 104.319V104.32Z" fill="#621E45"/>
<path d="M39.3199 76.8495C40.4832 78.454 41.4818 79.833 42.5364 81.2875C39.3926 81.2524 38.7689 80.4269 39.3199 76.8495Z" fill="#621E45"/>
</svg>
